<?xml version="1.0" encoding="UTF-8"?>
<svg width="23px" height="23px" viewBox="0 0 23 23" version="1.1" xmlns="http://www.w3.org/2000/svg" xmlns:xlink="http://www.w3.org/1999/xlink">
    <!-- Generator: Sketch 46.1 (44463) - http://www.bohemiancoding.com/sketch -->
    <title>Facebook-black</title>
    <desc>Created with Sketch.</desc>
    <defs></defs>
    <g id="Page-1" stroke="none" stroke-width="1" fill="none" fill-rule="evenodd">
        <g id="Artboard-2-Copy" transform="translate(-1.000000, -1.000000)" fill="#000000">
            <path d="M2.26129222,23.8899414 C1.56449566,23.8899414 1,23.3241743 1,22.6265133 L1,2.26333924 C1,1.56550063 1.56458434,1 2.26129222,1 L22.5914714,1 C23.2880019,1 23.8526749,1.56550063 23.8526749,2.26333924 L23.8526749,22.6265133 C23.8526749,23.3242631 23.2879132,23.8899414 22.5914714,23.8899414 L16.7680149,23.8899414 L16.7680149,15.0256946 L19.7384894,15.0256946 L20.1832758,11.5711403 L16.7680149,11.5711403 L16.7680149,9.36562569 C16.7680149,8.36545252 17.045297,7.6838675 18.4771971,7.6838675 L20.3035171,7.68306814 L20.3035171,4.5932871 C19.987662,4.55118763 18.9035394,4.45712996 17.6422472,4.45712996 C15.0090869,4.45712996 13.2063541,6.06703485 13.2063541,9.02350092 L13.2063541,11.5711403 L10.2282538,11.5711403 L10.2282538,15.0256946 L13.2063541,15.0256946 L13.2063541,23.8899414 L2.26129222,23.8899414 Z" id="Facebook"></path>
        </g>
    </g>
</svg>