<?xml version="1.0" encoding="UTF-8"?>
<svg width="23px" height="23px" viewBox="0 0 23 23" version="1.1" xmlns="http://www.w3.org/2000/svg" xmlns:xlink="http://www.w3.org/1999/xlink">
    <!-- Generator: Sketch 46.2 (44496) - http://www.bohemiancoding.com/sketch -->
    <title>Instagram-black</title>
    <desc>Created with Sketch.</desc>
    <defs></defs>
    <g id="Page-1" stroke="none" stroke-width="1" fill="none" fill-rule="evenodd">
        <g id="Artboard-2-Copy-2" transform="translate(-1.000000, -1.000000)" fill="#525252">
            <path d="M12.4263601,1 C15.5295444,1 15.9186614,1.01317496 17.1374018,1.06887322 C18.3536022,1.12443519 19.1842234,1.31792532 19.9110227,1.60086885 C20.6624054,1.89330745 21.2996247,2.28464907 21.9348937,2.92090858 C22.5701173,3.55721352 22.9608218,4.19547199 23.2528297,4.94808 C23.5352672,5.67606446 23.7284423,6.50804022 23.7839138,7.7262239 C23.8395214,8.94695172 23.8526749,9.33670326 23.8526749,12.4449934 C23.8526749,15.5532381 23.8395214,15.9429896 23.7839138,17.1637175 C23.7284423,18.3819011 23.5352672,19.2138769 23.2528297,19.9418614 C22.9608218,20.6944694 22.5701173,21.3327278 21.9348937,21.9690328 C21.2996247,22.6052923 20.6624054,22.9966339 19.9110227,23.2891179 C19.1842234,23.572016 18.3536022,23.7655062 17.1374018,23.8210681 C15.9186614,23.8767664 15.5295444,23.8899414 12.4263601,23.8899414 C9.32313052,23.8899414 8.93401352,23.8767664 7.71527313,23.8210681 C6.49907274,23.7655062 5.6684515,23.572016 4.94165224,23.2891179 C4.19026954,22.9966339 3.5530502,22.6052923 2.91778121,21.9690328 C2.28255757,21.3327278 1.89185308,20.6944694 1.5998906,19.9418614 C1.31740771,19.2138769 1.1242326,18.3819011 1.06876109,17.1637175 C1.01315351,15.9429896 1,15.5532381 1,12.4449934 C1,9.33670326 1.01315351,8.94695172 1.06876109,7.7262239 C1.1242326,6.50804022 1.31740771,5.67606446 1.5998906,4.94808 C1.89185308,4.19547199 2.28255757,3.55721352 2.91778121,2.92090858 C3.5530502,2.28464907 4.19026954,1.89330745 4.94165224,1.60086885 C5.6684515,1.31792532 6.49907274,1.12443519 7.71527313,1.06887322 C8.93401352,1.01317496 9.32313052,1 12.4263601,1 Z M12.4263601,3.0621532 C9.37538169,3.0621532 9.01397777,3.07382893 7.8091166,3.12889116 C6.69505998,3.17977375 6.09004405,3.36622209 5.68741069,3.52295864 C5.15405869,3.73057777 4.77342343,3.97858496 4.3736022,4.37910362 C3.97373561,4.77957685 3.7261322,5.16083282 3.51885108,5.69505457 C3.36236972,6.09834452 3.17622492,6.70434706 3.12542518,7.8202204 C3.07045259,9.02704637 3.05879586,9.38903964 3.05879586,12.4449934 C3.05879586,15.5009017 3.07045259,15.862895 3.12542518,17.069721 C3.17622492,18.1855943 3.36236972,18.7915968 3.51885108,19.1948868 C3.7261322,19.7291085 3.97378097,20.1103645 4.3736022,20.5108377 C4.77342343,20.9113564 5.15405869,21.1593636 5.68741069,21.3669827 C6.09004405,21.5237193 6.69505998,21.7101676 7.8091166,21.7610502 C9.0138417,21.8161124 9.3751549,21.8277882 12.4263601,21.8277882 C15.47752,21.8277882 15.8388786,21.8161124 17.0435583,21.7610502 C18.1576149,21.7101676 18.7626309,21.5237193 19.1652642,21.3669827 C19.6986162,21.1593636 20.0792515,20.9113564 20.4790727,20.5108377 C20.8789393,20.1103645 21.1265427,19.7291085 21.3338238,19.1948868 C21.4903052,18.7915968 21.67645,18.1855943 21.7272497,17.069721 C21.7822223,15.862895 21.793879,15.5009017 21.793879,12.4449934 C21.793879,9.38903964 21.7822223,9.02704637 21.7272497,7.8202204 C21.67645,6.70434706 21.4903052,6.09834452 21.3338238,5.69505457 C21.1265427,5.16083282 20.8789393,4.77957685 20.4790727,4.37910362 C20.0792515,3.97858496 19.6986162,3.73057777 19.1652642,3.52295864 C18.7626309,3.36622209 18.1576149,3.17977375 17.0435583,3.12889116 C15.8386971,3.07382893 15.4772932,3.0621532 12.4263601,3.0621532 Z M12.4263601,6.56782726 C15.6669305,6.56782726 18.2939125,9.19909312 18.2939125,12.4449934 C18.2939125,15.6908482 15.6669305,18.3221141 12.4263601,18.3221141 C9.18574441,18.3221141 6.55876244,15.6908482 6.55876244,12.4449934 C6.55876244,9.19909312 9.18574441,6.56782726 12.4263601,6.56782726 Z M12.4263601,16.2599609 C14.5298779,16.2599609 16.2351166,14.5519414 16.2351166,12.4449934 C16.2351166,10.3379999 14.5298779,8.62998045 12.4263601,8.62998045 C10.322797,8.62998045 8.6175583,10.3379999 8.6175583,12.4449934 C8.6175583,14.5519414 10.322797,16.2599609 12.4263601,16.2599609 Z M19.8969167,6.33563002 C19.8969167,7.09414403 19.2830108,7.7090056 18.5257317,7.7090056 C17.7684979,7.7090056 17.154592,7.09414403 17.154592,6.33563002 C17.154592,5.577116 17.7684979,4.962209 18.5257317,4.962209 C19.2830108,4.962209 19.8969167,5.577116 19.8969167,6.33563002 Z" id="Instagram"></path>
        </g>
    </g>
</svg>