<?xml version="1.0" encoding="UTF-8"?>
<svg width="25px" height="23px" viewBox="0 0 25 23" version="1.1" xmlns="http://www.w3.org/2000/svg" xmlns:xlink="http://www.w3.org/1999/xlink">
    <!-- Generator: Sketch 46.1 (44463) - http://www.bohemiancoding.com/sketch -->
    <title>LinkedIn-black</title>
    <desc>Created with Sketch.</desc>
    <defs></defs>
    <g id="Page-1" stroke="none" stroke-width="1" fill="none" fill-rule="evenodd">
        <g id="Artboard-2" fill="#000000">
            <path d="M25,22.7272727 L19.474659,22.7272727 L19.474659,14.7377275 C19.474659,12.646475 18.6103598,11.218835 16.7097836,11.218835 C15.256056,11.218835 14.4476129,12.1822373 14.0713194,13.1107127 C13.9302093,13.4439742 13.9522578,13.9082119 13.9522578,14.3724496 L13.9522578,22.7272727 L8.47836312,22.7272727 C8.47836312,22.7272727 8.54891816,8.574572 8.47836312,7.28809514 L13.9522578,7.28809514 L13.9522578,9.71115393 C14.275635,8.6517024 16.0248119,7.1396555 18.8161453,7.1396555 C22.2792215,7.1396555 25,9.3604289 25,14.1425137 L25,22.7272727 L25,22.7272727 Z M2.94273283,5.35692456 L2.90745532,5.35692456 C1.14357949,5.35692456 0,4.17668392 0,2.68064522 C0,1.15550071 1.17738711,0 2.97654045,0 C4.77422389,0 5.87958608,1.15259013 5.91486359,2.67627935 C5.91486359,4.17231805 4.77422389,5.35692456 2.94273283,5.35692456 L2.94273283,5.35692456 L2.94273283,5.35692456 Z M0.630585607,7.28809514 L5.50329257,7.28809514 L5.50329257,22.7272727 L0.630585607,22.7272727 L0.630585607,7.28809514 L0.630585607,7.28809514 Z" id="LinkedIn"></path>
        </g>
    </g>
</svg>