<?xml version="1.0" encoding="UTF-8"?>
<svg width="22px" height="22px" viewBox="0 0 22 22" version="1.1" xmlns="http://www.w3.org/2000/svg" xmlns:xlink="http://www.w3.org/1999/xlink">
    <!-- Generator: Sketch 46.2 (44496) - http://www.bohemiancoding.com/sketch -->
    <title>Pinterest-black</title>
    <desc>Created with Sketch.</desc>
    <defs></defs>
    <g id="Page-1" stroke="none" stroke-width="1" fill="none" fill-rule="evenodd">
        <g id="Artboard-2-Copy-3" transform="translate(-2.000000, -1.000000)" fill="#525252">
            <path d="M13.0006468,1 C6.92597166,1 2,5.92467807 2,12.0006468 C2,16.5036162 4.70876698,20.3740225 8.58564121,22.0750867 C8.55459517,21.3079908 8.58046687,20.3843711 8.7757982,19.5487152 C8.98794614,18.6561416 10.1909802,13.555536 10.1909802,13.555536 C10.1909802,13.555536 9.84041865,12.8531193 9.84041865,11.8143706 C9.84041865,10.1844535 10.7860293,8.96718998 11.961898,8.96718998 C12.9618392,8.96718998 13.44564,9.71876286 13.44564,10.619098 C13.44564,11.6242136 12.8040219,13.1286529 12.4741577,14.5218439 C12.1986241,15.6899512 13.0588581,16.6407362 14.2101488,16.6407362 C16.2941142,16.6407362 17.6976539,13.9643088 17.6976539,10.7924384 C17.6976539,8.38248956 16.0742047,6.5779385 13.1209502,6.5779385 C9.7847945,6.5779385 7.70600341,9.06550244 7.70600341,11.844123 C7.70600341,12.8039631 7.98800494,13.4792144 8.43041101,14.0018228 C8.63479744,14.2437232 8.66196272,14.3394485 8.58822838,14.6162757 C8.53648498,14.8167813 8.41488799,15.3057565 8.36443817,15.4985006 C8.29070383,15.7766214 8.06562004,15.877521 7.81466455,15.7740342 C6.27659199,15.1466455 5.56123949,13.4636914 5.56123949,11.5711766 C5.56123949,8.44716881 8.19627212,4.6983595 13.4223555,4.6983595 C17.622626,4.6983595 20.3870171,7.73957782 20.3870171,11.0007056 C20.3870171,15.3161051 17.9887105,18.5397189 14.4507556,18.5397189 C13.2645381,18.5397189 12.1468807,17.8981008 11.7639795,17.1698124 C11.7639795,17.1698124 11.1249486,19.7039454 10.9904157,20.1929206 C10.7575704,21.0402187 10.3009349,21.8888105 9.88310696,22.5485388 C10.8726995,22.840889 11.9179162,23 13.0006468,23 C19.0753219,23 24,18.0753219 24,12.0006468 C24,5.92467807 19.0753219,1 13.0006468,1" id="Pinterest"></path>
        </g>
    </g>
</svg>