<?xml version="1.0" encoding="UTF-8"?>
<svg width="12px" height="22px" viewBox="0 0 12 22" version="1.1" xmlns="http://www.w3.org/2000/svg" xmlns:xlink="http://www.w3.org/1999/xlink">
    <!-- Generator: Sketch 46.2 (44496) - http://www.bohemiancoding.com/sketch -->
    <title>Tumblr-black</title>
    <desc>Created with Sketch.</desc>
    <defs></defs>
    <g id="Page-1" stroke="none" stroke-width="1" fill="none" fill-rule="evenodd">
        <g id="Artboard-2-Copy-4" transform="translate(-7.000000, -1.000000)" fill="#525252">
            <path d="M17.9958482,18.5728381 C17.607604,18.7679449 16.8651149,18.9376988 16.3114518,18.9523043 C14.6398705,18.9994275 14.3154402,17.7151123 14.3019713,16.7840837 L14.3019713,9.9353671 L18.4949819,9.9353671 L18.4949819,6.6042219 L14.3164863,6.6042219 L14.3164863,1 L11.2587858,1 C11.2084409,1 11.1205662,1.04643431 11.1081435,1.16424243 C10.9292556,2.87941845 10.1676747,5.88979487 7,7.09350452 L7,9.93522931 L9.11317794,9.93522931 L9.11317794,17.1231782 C9.11317794,19.5844723 10.8361503,23.0811 15.3845827,22.9985654 C16.919252,22.9708702 18.6236556,22.2940591 19,21.7097032 L17.9958482,18.5728381" id="Tumblr"></path>
        </g>
    </g>
</svg>